<svg width="20" height="20" viewBox="0 0 20 20" fill="none" xmlns="http://www.w3.org/2000/svg">
<g clip-path="url(#clip0_2014_71)">
<path d="M19.1665 3.33337V8.33337H14.1665" stroke="url(#paint0_linear_2014_71)" stroke-width="2" stroke-linecap="round" stroke-linejoin="round"/>
<path d="M0.833496 16.6666V11.6666H5.8335" stroke="url(#paint1_linear_2014_71)" stroke-width="2" stroke-linecap="round" stroke-linejoin="round"/>
<path d="M2.92516 7.49998C3.3478 6.30564 4.06611 5.23782 5.01305 4.39616C5.96 3.55451 7.10472 2.96645 8.3404 2.68686C9.57609 2.40727 10.8625 2.44527 12.0795 2.79729C13.2965 3.14932 14.4045 3.80391 15.3002 4.69998L19.1668 8.33331M0.833496 11.6666L4.70016 15.3C5.59579 16.1961 6.70381 16.8506 7.92084 17.2027C9.13787 17.5547 10.4242 17.5927 11.6599 17.3131C12.8956 17.0335 14.0403 16.4455 14.9873 15.6038C15.9342 14.7621 16.6525 13.6943 17.0752 12.5" stroke="url(#paint2_linear_2014_71)" stroke-width="2" stroke-linecap="round" stroke-linejoin="round"/>
<circle cx="10" cy="10" r="2" fill="url(#paint3_linear_2014_71)"/>
</g>
<defs>
<linearGradient id="paint0_linear_2014_71" x1="14.1665" y1="5.83356" x2="19.1665" y2="5.83356" gradientUnits="userSpaceOnUse">
<stop stop-color="#D83948"/>
<stop offset="1" stop-color="#FC830B"/>
</linearGradient>
<linearGradient id="paint1_linear_2014_71" x1="0.833496" y1="14.1668" x2="5.8335" y2="14.1668" gradientUnits="userSpaceOnUse">
<stop stop-color="#D83948"/>
<stop offset="1" stop-color="#FC830B"/>
</linearGradient>
<linearGradient id="paint2_linear_2014_71" x1="0.833496" y1="10.0005" x2="19.1668" y2="10.0005" gradientUnits="userSpaceOnUse">
<stop stop-color="#D83948"/>
<stop offset="1" stop-color="#FC830B"/>
</linearGradient>
<linearGradient id="paint3_linear_2014_71" x1="8" y1="10.0001" x2="12" y2="10.0001" gradientUnits="userSpaceOnUse">
<stop stop-color="#D83948"/>
<stop offset="1" stop-color="#FC830B"/>
</linearGradient>
<clipPath id="clip0_2014_71">
<rect width="20" height="20" fill="white"/>
</clipPath>
</defs>
</svg>
