<svg width="14" height="15" viewBox="0 0 14 15" fill="none" xmlns="http://www.w3.org/2000/svg">
<path d="M1.75 4H2.91667H12.25" stroke="#C93535" stroke-linecap="round" stroke-linejoin="round"/>
<path d="M11.0834 4.00033V12.167C11.0834 12.4764 10.9605 12.7732 10.7417 12.9919C10.5229 13.2107 10.2262 13.3337 9.91675 13.3337H4.08342C3.774 13.3337 3.47725 13.2107 3.25846 12.9919C3.03966 12.7732 2.91675 12.4764 2.91675 12.167V4.00033M4.66675 4.00033V2.83366C4.66675 2.52424 4.78967 2.22749 5.00846 2.0087C5.22725 1.78991 5.524 1.66699 5.83342 1.66699H8.16675C8.47617 1.66699 8.77291 1.78991 8.99171 2.0087C9.2105 2.22749 9.33342 2.52424 9.33342 2.83366V4.00033" stroke="#C93535" stroke-linecap="round" stroke-linejoin="round"/>
<path d="M5.83325 6.91699V10.417" stroke="#C93535" stroke-linecap="round" stroke-linejoin="round"/>
<path d="M8.16675 6.91699V10.417" stroke="#C93535" stroke-linecap="round" stroke-linejoin="round"/>
</svg>
