<svg width="14" height="15" viewBox="0 0 14 15" fill="none" xmlns="http://www.w3.org/2000/svg">
<g clip-path="url(#clip0_73_950)">
<path d="M9.91663 2.24985C10.0698 2.09664 10.2517 1.97511 10.4519 1.89219C10.6521 1.80928 10.8666 1.7666 11.0833 1.7666C11.3 1.7666 11.5145 1.80928 11.7147 1.89219C11.9149 1.97511 12.0968 2.09664 12.25 2.24985C12.4032 2.40306 12.5247 2.58494 12.6076 2.78512C12.6905 2.9853 12.7332 3.19985 12.7332 3.41652C12.7332 3.63319 12.6905 3.84774 12.6076 4.04791C12.5247 4.24809 12.4032 4.42998 12.25 4.58318L4.37496 12.4582L1.16663 13.3332L2.04163 10.1249L9.91663 2.24985Z" stroke="#48546C" stroke-width="1.5" stroke-linecap="round" stroke-linejoin="round"/>
</g>
<defs>
<clipPath id="clip0_73_950">
<rect width="14" height="14" fill="white" transform="translate(0 0.5)"/>
</clipPath>
</defs>
</svg>
