<svg width="14" height="10" viewBox="0 0 14 10" fill="none" xmlns="http://www.w3.org/2000/svg">
<path d="M13.808 4.75003C13.7771 4.70986 13.0387 3.75551 11.8412 2.79129C11.1335 2.2215 10.411 1.76647 9.69381 1.43895C8.78222 1.02262 7.87589 0.811523 7.00001 0.811523C6.12414 0.811523 5.21783 1.02262 4.30622 1.43895C3.589 1.7665 2.86649 2.2215 2.15881 2.79129C0.961268 3.75551 0.222878 4.70986 0.192035 4.75003L0 5L0.192007 5.24998C0.222851 5.29015 0.96124 6.24447 2.15878 7.20872C2.86649 7.77851 3.58897 8.23353 4.30619 8.56106C5.21778 8.97742 6.12411 9.18851 6.99999 9.18851C7.87586 9.18851 8.78217 8.97742 9.69378 8.56108C10.411 8.23353 11.1335 7.77853 11.8412 7.20875C13.0387 6.24452 13.7771 5.29018 13.8079 5.25001L14 5.00003L13.808 4.75003ZM6.99999 8.36782C5.27621 8.36782 3.70376 7.3963 2.68816 6.58129C1.91685 5.96231 1.3394 5.33603 1.05005 5.00014C1.75667 4.1812 4.18279 1.63219 6.99999 1.63219C8.72376 1.63219 10.2962 2.60371 11.3118 3.41872C12.083 4.03764 12.6605 4.66389 12.9499 4.99987C12.2433 5.81878 9.81721 8.36782 6.99999 8.36782Z" fill="white"/>
<path d="M6.99996 2.08691C5.39349 2.08691 4.08655 3.39383 4.08655 5.00033C4.08655 6.6068 5.39347 7.91375 6.99996 7.91375C8.60643 7.91375 9.91338 6.60683 9.91338 5.00033C9.91338 3.39383 8.60643 2.08691 6.99996 2.08691ZM6.99996 7.09305C5.84601 7.09305 4.90724 6.15429 4.90724 5.00033C4.90724 3.84637 5.84601 2.90761 6.99996 2.90761C8.15392 2.90761 9.09269 3.84637 9.09269 5.00033C9.09269 6.15429 8.1539 7.09305 6.99996 7.09305Z" fill="white"/>
<path d="M6.99996 3.68652C6.27593 3.68652 5.68689 4.27559 5.68689 4.9996C5.68689 5.72363 6.27595 6.31267 6.99996 6.31267C7.72399 6.31267 8.31303 5.7236 8.31303 4.9996C8.31306 4.27559 7.72399 3.68652 6.99996 3.68652ZM6.99996 5.49203C6.72847 5.49203 6.50756 5.27112 6.50756 4.99962C6.50756 4.72813 6.72847 4.50722 6.99996 4.50722C7.27146 4.50722 7.49237 4.72813 7.49237 4.99962C7.49237 5.27112 7.27146 5.49203 6.99996 5.49203Z" fill="white"/>
</svg>
