<svg width="25" height="25" viewBox="0 0 25 25" fill="none" xmlns="http://www.w3.org/2000/svg">
<path d="M21.4998 2.5L19.4998 4.5M19.4998 4.5L22.4998 7.5L18.9998 11L15.9998 8M19.4998 4.5L15.9998 8M11.8898 12.11C12.4061 12.6195 12.8166 13.226 13.0975 13.8948C13.3785 14.5635 13.5244 15.2813 13.5268 16.0066C13.5292 16.732 13.3882 17.4507 13.1117 18.1213C12.8352 18.7919 12.4288 19.4012 11.9159 19.9141C11.403 20.4271 10.7937 20.8334 10.1231 21.1099C9.45247 21.3864 8.73379 21.5275 8.00842 21.525C7.28305 21.5226 6.56533 21.3767 5.89658 21.0958C5.22782 20.8148 4.62125 20.4043 4.11179 19.888C3.10992 18.8507 2.55555 17.4614 2.56808 16.0193C2.58061 14.5772 3.15904 13.1977 4.17878 12.178C5.19853 11.1583 6.578 10.5798 8.02008 10.5673C9.46216 10.5548 10.8515 11.1091 11.8888 12.111L11.8898 12.11ZM11.8898 12.11L15.9998 8" stroke="#667191" stroke-width="2" stroke-linecap="round" stroke-linejoin="round"/>
</svg>
