<svg width="16" height="16" viewBox="0 0 16 16" fill="none" xmlns="http://www.w3.org/2000/svg">
<path d="M6.59966 3.77125L8.01388 2.35703C8.32341 2.04751 8.69087 1.80197 9.09529 1.63446C9.49971 1.46694 9.93316 1.38072 10.3709 1.38072C10.8086 1.38072 11.2421 1.46694 11.6465 1.63446C12.0509 1.80197 12.4184 2.0475 12.7279 2.35703C13.0375 2.66656 13.283 3.03403 13.4505 3.43844C13.618 3.84286 13.7042 4.27632 13.7042 4.71406C13.7042 5.1518 13.618 5.58525 13.4505 5.98967C13.283 6.39409 13.0375 6.76155 12.7279 7.07108L11.3137 8.48529M8.48528 11.3137L7.07107 12.7279C6.76154 13.0375 6.39408 13.283 5.98966 13.4505C5.58524 13.618 5.15178 13.7042 4.71404 13.7042C3.82999 13.7042 2.98214 13.3531 2.35702 12.7279C1.7319 12.1028 1.38071 11.255 1.38071 10.3709C1.38071 9.48686 1.7319 8.63901 2.35702 8.01389L3.77124 6.59967" stroke="#B9DEFF" stroke-width="1.5" stroke-linecap="round" stroke-linejoin="round"/>
<path d="M5.65625 9.42822L9.42749 5.65699" stroke="#B9DEFF" stroke-width="1.5" stroke-linecap="round" stroke-linejoin="round"/>
</svg>
