<svg width="44" height="50" viewBox="0 0 44 50" fill="none" xmlns="http://www.w3.org/2000/svg">
<path d="M30.9833 5.42965L27.5764 3.46228L21.5746 0L15.4547 3.53241L5.9464 9.02111L0 12.4539V30.1897L3.01934 28.4438L5.9464 26.757L30.8061 12.4059L36.926 8.87347L30.9796 5.43703L30.9833 5.42965ZM5.9464 19.8915V15.953L21.4565 7.00207L24.8634 8.96944L5.9464 19.8915Z" fill="url(#paint0_linear_2037_82)"/>
<path d="M12.3505 33.8256L8.93619 35.793L12.3246 37.7567H12.332L18.2563 41.1747L21.6706 43.1494H21.6743L25.0812 41.1821L37.3394 34.0988V30.1604L21.6706 39.2073L15.7389 35.7856L37.3394 23.3096L43.2858 19.8769V37.5131L37.3394 40.9421L31.0091 44.6L27.6022 46.5711L21.6521 50.0002L15.7242 46.5822L12.3099 44.6148H12.3062L6.37824 41.1894L5.94637 40.9384L2.98978 39.2294L0.00366211 37.5057V34.0988L3.00455 32.3676L5.94637 30.666L6.41146 30.3966L34.1983 14.3586L37.3394 12.5389L40.3181 10.8188L43.2858 12.5389V15.9643L40.1336 17.784L37.3394 19.397L12.3505 33.8256Z" fill="url(#paint1_linear_2037_82)"/>
<defs>
<linearGradient id="paint0_linear_2037_82" x1="0" y1="15.0949" x2="36.926" y2="15.0949" gradientUnits="userSpaceOnUse">
<stop stop-color="#D83948"/>
<stop offset="1" stop-color="#FC830B"/>
</linearGradient>
<linearGradient id="paint1_linear_2037_82" x1="0.00366211" y1="30.4095" x2="43.2858" y2="30.4095" gradientUnits="userSpaceOnUse">
<stop stop-color="#D83948"/>
<stop offset="1" stop-color="#FC830B"/>
</linearGradient>
</defs>
</svg>
