<svg width="54" height="16" viewBox="0 0 54 16" fill="none" xmlns="http://www.w3.org/2000/svg">
<rect x="1.28906" y="0.5" width="15" height="15" rx="7.5" stroke="#424962"/>
<rect x="4.78906" y="4" width="8" height="8" rx="4" fill="#00E78B"/>
<path d="M25.0891 12L27.6811 3.6H29.4571L32.0491 12H31.0051L30.3571 9.876H26.7811L26.1331 12H25.0891ZM27.0331 8.964H30.0931L28.6531 4.212H28.4851L27.0331 8.964ZM35.281 12C34.945 12 34.685 11.908 34.501 11.724C34.325 11.54 34.237 11.288 34.237 10.968V6.96H32.473V6.132H34.237V4.044H35.185V6.132H37.105V6.96H35.185V10.824C35.185 11.064 35.301 11.184 35.533 11.184H36.841V12H35.281ZM38.6405 12V6.132H39.5885V12H38.6405ZM39.1205 5.22C38.9125 5.22 38.7365 5.152 38.5925 5.016C38.4565 4.88 38.3885 4.708 38.3885 4.5C38.3885 4.284 38.4565 4.108 38.5925 3.972C38.7365 3.836 38.9125 3.768 39.1205 3.768C39.3285 3.768 39.5005 3.836 39.6365 3.972C39.7725 4.108 39.8405 4.284 39.8405 4.5C39.8405 4.708 39.7725 4.88 39.6365 5.016C39.5005 5.152 39.3285 5.22 39.1205 5.22ZM43.0699 12L40.9699 6.132H41.9779L43.7419 11.292H43.9099L45.6739 6.132H46.6819L44.5819 12H43.0699ZM49.6632 12.168C49.2552 12.168 48.8832 12.096 48.5472 11.952C48.2112 11.808 47.9472 11.6 47.7552 11.328C47.5632 11.056 47.4672 10.724 47.4672 10.332C47.4672 9.932 47.5632 9.604 47.7552 9.348C47.9472 9.084 48.2112 8.888 48.5472 8.76C48.8832 8.624 49.2592 8.556 49.6752 8.556H51.6552V8.124C51.6552 7.708 51.5312 7.38 51.2832 7.14C51.0432 6.9 50.6832 6.78 50.2032 6.78C49.7312 6.78 49.3632 6.896 49.0992 7.128C48.8352 7.352 48.6552 7.656 48.5592 8.04L47.6712 7.752C47.7672 7.424 47.9192 7.128 48.1272 6.864C48.3352 6.592 48.6112 6.376 48.9552 6.216C49.3072 6.048 49.7272 5.964 50.2152 5.964C50.9672 5.964 51.5512 6.16 51.9672 6.552C52.3832 6.936 52.5912 7.48 52.5912 8.184V10.836C52.5912 11.076 52.7032 11.196 52.9272 11.196H53.4672V12H52.6392C52.3752 12 52.1632 11.928 52.0032 11.784C51.8432 11.632 51.7632 11.432 51.7632 11.184V11.124H51.6192C51.5312 11.276 51.4112 11.436 51.2592 11.604C51.1152 11.764 50.9152 11.896 50.6592 12C50.4032 12.112 50.0712 12.168 49.6632 12.168ZM49.7712 11.352C50.3312 11.352 50.7832 11.188 51.1272 10.86C51.4792 10.524 51.6552 10.056 51.6552 9.456V9.324H49.7112C49.3352 9.324 49.0232 9.408 48.7752 9.576C48.5352 9.736 48.4152 9.98 48.4152 10.308C48.4152 10.636 48.5392 10.892 48.7872 11.076C49.0432 11.26 49.3712 11.352 49.7712 11.352Z" fill="#858FAB"/>
</svg>
