<svg width="83" height="17" viewBox="0 0 83 17" fill="none" xmlns="http://www.w3.org/2000/svg">
<rect x="1.28906" y="1.07866" width="15" height="15" rx="7.5" stroke="#424962"/>
<rect x="4.78906" y="4.57866" width="8" height="8" rx="4" fill="#FF2741"/>
<path d="M25.7491 12.5787V4.17866H30.8251V5.09066H26.7571V7.91066H30.5011V8.82266H26.7571V12.5787H25.7491ZM32.2655 12.5787V6.71066H33.2135V12.5787H32.2655ZM32.7455 5.79866C32.5375 5.79866 32.3615 5.73066 32.2175 5.59466C32.0815 5.45866 32.0135 5.28666 32.0135 5.07866C32.0135 4.86266 32.0815 4.68666 32.2175 4.55066C32.3615 4.41466 32.5375 4.34666 32.7455 4.34666C32.9535 4.34666 33.1255 4.41466 33.2615 4.55066C33.3975 4.68666 33.4655 4.86266 33.4655 5.07866C33.4655 5.28666 33.3975 5.45866 33.2615 5.59466C33.1255 5.73066 32.9535 5.79866 32.7455 5.79866ZM35.2069 12.5787V6.71066H36.1309V7.70666H36.2989C36.4269 7.42666 36.6429 7.17466 36.9469 6.95066C37.2589 6.71866 37.7149 6.60266 38.3149 6.60266C38.7549 6.60266 39.1469 6.69466 39.4909 6.87866C39.8429 7.06266 40.1229 7.33466 40.3309 7.69466C40.5389 8.05466 40.6429 8.49866 40.6429 9.02666V12.5787H39.6949V9.09866C39.6949 8.51466 39.5469 8.09066 39.2509 7.82666C38.9629 7.56266 38.5709 7.43066 38.0749 7.43066C37.5069 7.43066 37.0429 7.61466 36.6829 7.98266C36.3309 8.35066 36.1549 8.89866 36.1549 9.62666V12.5787H35.2069ZM44.3663 12.7467C43.9583 12.7467 43.5863 12.6747 43.2503 12.5307C42.9143 12.3867 42.6503 12.1787 42.4583 11.9067C42.2663 11.6347 42.1703 11.3027 42.1703 10.9107C42.1703 10.5107 42.2663 10.1827 42.4583 9.92666C42.6503 9.66266 42.9143 9.46666 43.2503 9.33866C43.5863 9.20266 43.9623 9.13466 44.3783 9.13466H46.3583V8.70266C46.3583 8.28666 46.2343 7.95866 45.9863 7.71866C45.7463 7.47866 45.3863 7.35866 44.9063 7.35866C44.4343 7.35866 44.0663 7.47466 43.8023 7.70666C43.5383 7.93066 43.3583 8.23466 43.2623 8.61866L42.3743 8.33066C42.4703 8.00266 42.6223 7.70666 42.8303 7.44266C43.0383 7.17066 43.3143 6.95466 43.6583 6.79466C44.0103 6.62666 44.4303 6.54266 44.9183 6.54266C45.6703 6.54266 46.2543 6.73866 46.6703 7.13066C47.0863 7.51466 47.2943 8.05866 47.2943 8.76266V11.4147C47.2943 11.6547 47.4063 11.7747 47.6303 11.7747H48.1703V12.5787H47.3423C47.0783 12.5787 46.8663 12.5067 46.7063 12.3627C46.5463 12.2107 46.4663 12.0107 46.4663 11.7627V11.7027H46.3223C46.2343 11.8547 46.1143 12.0147 45.9623 12.1827C45.8183 12.3427 45.6183 12.4747 45.3623 12.5787C45.1063 12.6907 44.7743 12.7467 44.3663 12.7467ZM44.4743 11.9307C45.0343 11.9307 45.4863 11.7667 45.8303 11.4387C46.1823 11.1027 46.3583 10.6347 46.3583 10.0347V9.90266H44.4143C44.0383 9.90266 43.7263 9.98666 43.4783 10.1547C43.2383 10.3147 43.1183 10.5587 43.1183 10.8867C43.1183 11.2147 43.2423 11.4707 43.4903 11.6547C43.7463 11.8387 44.0743 11.9307 44.4743 11.9307ZM49.4687 12.5787V4.17866H50.4167V12.5787H49.4687ZM52.4101 12.5787V6.71066H53.3581V12.5787H52.4101ZM52.8901 5.79866C52.6821 5.79866 52.5061 5.73066 52.3621 5.59466C52.2261 5.45866 52.1581 5.28666 52.1581 5.07866C52.1581 4.86266 52.2261 4.68666 52.3621 4.55066C52.5061 4.41466 52.6821 4.34666 52.8901 4.34666C53.0981 4.34666 53.2701 4.41466 53.4061 4.55066C53.5421 4.68666 53.6101 4.86266 53.6101 5.07866C53.6101 5.28666 53.5421 5.45866 53.4061 5.59466C53.2701 5.73066 53.0981 5.79866 52.8901 5.79866ZM55.0875 12.5787V11.3547L58.8195 7.67066V7.53866H55.2075V6.71066H59.8155V7.93466L56.0715 11.6187V11.7627H59.9115V12.5787H55.0875ZM63.3741 12.7467C62.9661 12.7467 62.5941 12.6747 62.2581 12.5307C61.9221 12.3867 61.6581 12.1787 61.4661 11.9067C61.2741 11.6347 61.1781 11.3027 61.1781 10.9107C61.1781 10.5107 61.2741 10.1827 61.4661 9.92666C61.6581 9.66266 61.9221 9.46666 62.2581 9.33866C62.5941 9.20266 62.9701 9.13466 63.3861 9.13466H65.3661V8.70266C65.3661 8.28666 65.2421 7.95866 64.9941 7.71866C64.7541 7.47866 64.3941 7.35866 63.9141 7.35866C63.4421 7.35866 63.0741 7.47466 62.8101 7.70666C62.5461 7.93066 62.3661 8.23466 62.2701 8.61866L61.3821 8.33066C61.4781 8.00266 61.6301 7.70666 61.8381 7.44266C62.0461 7.17066 62.3221 6.95466 62.6661 6.79466C63.0181 6.62666 63.4381 6.54266 63.9261 6.54266C64.6781 6.54266 65.2621 6.73866 65.6781 7.13066C66.0941 7.51466 66.3021 8.05866 66.3021 8.76266V11.4147C66.3021 11.6547 66.4141 11.7747 66.6381 11.7747H67.1781V12.5787H66.3501C66.0861 12.5787 65.8741 12.5067 65.7141 12.3627C65.5541 12.2107 65.4741 12.0107 65.4741 11.7627V11.7027H65.3301C65.2421 11.8547 65.1221 12.0147 64.9701 12.1827C64.8261 12.3427 64.6261 12.4747 64.3701 12.5787C64.1141 12.6907 63.7821 12.7467 63.3741 12.7467ZM63.4821 11.9307C64.0421 11.9307 64.4941 11.7667 64.8381 11.4387C65.1901 11.1027 65.3661 10.6347 65.3661 10.0347V9.90266H63.4221C63.0461 9.90266 62.7341 9.98666 62.4861 10.1547C62.2461 10.3147 62.1261 10.5587 62.1261 10.8867C62.1261 11.2147 62.2501 11.4707 62.4981 11.6547C62.7541 11.8387 63.0821 11.9307 63.4821 11.9307ZM70.7964 12.7467C70.2924 12.7467 69.8284 12.6267 69.4044 12.3867C68.9804 12.1467 68.6444 11.7987 68.3964 11.3427C68.1484 10.8867 68.0244 10.3467 68.0244 9.72266V9.56666C68.0244 8.94266 68.1484 8.40666 68.3964 7.95866C68.6444 7.50266 68.9764 7.15466 69.3924 6.91466C69.8164 6.66666 70.2844 6.54266 70.7964 6.54266C71.2044 6.54266 71.5484 6.59866 71.8284 6.71066C72.1164 6.81466 72.3484 6.95066 72.5244 7.11866C72.7004 7.27866 72.8364 7.45066 72.9324 7.63466H73.1004V4.17866H74.0484V12.5787H73.1244V11.6067H72.9564C72.7964 11.9027 72.5484 12.1667 72.2124 12.3987C71.8764 12.6307 71.4044 12.7467 70.7964 12.7467ZM71.0484 11.9067C71.6564 11.9067 72.1484 11.7147 72.5244 11.3307C72.9084 10.9387 73.1004 10.3947 73.1004 9.69866V9.59066C73.1004 8.89466 72.9084 8.35466 72.5244 7.97066C72.1484 7.57866 71.6564 7.38266 71.0484 7.38266C70.4484 7.38266 69.9524 7.57866 69.5604 7.97066C69.1764 8.35466 68.9844 8.89466 68.9844 9.59066V9.69866C68.9844 10.3947 69.1764 10.9387 69.5604 11.3307C69.9524 11.7147 70.4484 11.9067 71.0484 11.9067ZM78.7471 12.7467C78.1551 12.7467 77.6311 12.6227 77.1751 12.3747C76.7271 12.1267 76.3751 11.7787 76.1191 11.3307C75.8711 10.8747 75.7471 10.3387 75.7471 9.72266V9.56666C75.7471 8.95866 75.8711 8.42666 76.1191 7.97066C76.3751 7.51466 76.7271 7.16266 77.1751 6.91466C77.6311 6.66666 78.1551 6.54266 78.7471 6.54266C79.3391 6.54266 79.8591 6.66666 80.3071 6.91466C80.7631 7.16266 81.1151 7.51466 81.3631 7.97066C81.6191 8.42666 81.7471 8.95866 81.7471 9.56666V9.72266C81.7471 10.3387 81.6191 10.8747 81.3631 11.3307C81.1151 11.7787 80.7631 12.1267 80.3071 12.3747C79.8591 12.6227 79.3391 12.7467 78.7471 12.7467ZM78.7471 11.8947C79.3711 11.8947 79.8671 11.6987 80.2351 11.3067C80.6111 10.9067 80.7991 10.3707 80.7991 9.69866V9.59066C80.7991 8.91866 80.6111 8.38666 80.2351 7.99466C79.8671 7.59466 79.3711 7.39466 78.7471 7.39466C78.1311 7.39466 77.6351 7.59466 77.2591 7.99466C76.8831 8.38666 76.6951 8.91866 76.6951 9.59066V9.69866C76.6951 10.3707 76.8831 10.9067 77.2591 11.3067C77.6351 11.6987 78.1311 11.8947 78.7471 11.8947Z" fill="#858FAB"/>
</svg>
