<svg width="101" height="17" viewBox="0 0 101 17" fill="none" xmlns="http://www.w3.org/2000/svg">
<rect x="1.28906" y="1.28934" width="15" height="15" rx="7.5" stroke="#424962"/>
<rect x="4.78906" y="4.78934" width="8" height="8" rx="4" fill="#F98707"/>
<path d="M25.7491 12.7893V4.38934H28.9651C29.4691 4.38934 29.9171 4.48934 30.3091 4.68934C30.7091 4.88134 31.0251 5.15734 31.2571 5.51734C31.4891 5.87734 31.6051 6.31334 31.6051 6.82534V6.98134C31.6051 7.48534 31.4851 7.92134 31.2451 8.28934C31.0131 8.64934 30.6971 8.92534 30.2971 9.11734C29.8971 9.30934 29.4531 9.40534 28.9651 9.40534H26.7571V12.7893H25.7491ZM26.7571 8.49334H28.8571C29.3931 8.49334 29.8171 8.36134 30.1291 8.09734C30.4411 7.82534 30.5971 7.44534 30.5971 6.95734V6.83734C30.5971 6.34934 30.4411 5.97334 30.1291 5.70934C29.8251 5.43734 29.4011 5.30134 28.8571 5.30134H26.7571V8.49334ZM32.9921 12.7893V6.92134H33.9161V7.64134H34.0841C34.1881 7.38534 34.3481 7.19734 34.5641 7.07734C34.7801 6.95734 35.0641 6.89734 35.4161 6.89734H36.1121V7.76134H35.3561C34.9321 7.76134 34.5881 7.88134 34.3241 8.12134C34.0681 8.35334 33.9401 8.71734 33.9401 9.21334V12.7893H32.9921ZM40.0166 12.9573C39.4246 12.9573 38.9006 12.8333 38.4446 12.5853C37.9966 12.3373 37.6446 11.9893 37.3886 11.5413C37.1406 11.0853 37.0166 10.5493 37.0166 9.93334V9.77734C37.0166 9.16934 37.1406 8.63734 37.3886 8.18134C37.6446 7.72534 37.9966 7.37334 38.4446 7.12534C38.9006 6.87734 39.4246 6.75334 40.0166 6.75334C40.6086 6.75334 41.1286 6.87734 41.5766 7.12534C42.0326 7.37334 42.3846 7.72534 42.6326 8.18134C42.8886 8.63734 43.0166 9.16934 43.0166 9.77734V9.93334C43.0166 10.5493 42.8886 11.0853 42.6326 11.5413C42.3846 11.9893 42.0326 12.3373 41.5766 12.5853C41.1286 12.8333 40.6086 12.9573 40.0166 12.9573ZM40.0166 12.1053C40.6406 12.1053 41.1366 11.9093 41.5046 11.5173C41.8806 11.1173 42.0686 10.5813 42.0686 9.90934V9.80134C42.0686 9.12934 41.8806 8.59734 41.5046 8.20534C41.1366 7.80534 40.6406 7.60534 40.0166 7.60534C39.4006 7.60534 38.9046 7.80534 38.5286 8.20534C38.1526 8.59734 37.9646 9.12934 37.9646 9.80134V9.90934C37.9646 10.5813 38.1526 11.1173 38.5286 11.5173C38.9046 11.9093 39.4006 12.1053 40.0166 12.1053ZM47.4226 12.9573C46.8546 12.9573 46.3426 12.8373 45.8866 12.5973C45.4386 12.3493 45.0826 11.9973 44.8186 11.5413C44.5626 11.0853 44.4346 10.5453 44.4346 9.92134V9.78934C44.4346 9.15734 44.5626 8.61734 44.8186 8.16934C45.0826 7.71334 45.4386 7.36534 45.8866 7.12534C46.3426 6.87734 46.8546 6.75334 47.4226 6.75334C47.9826 6.75334 48.4586 6.85734 48.8506 7.06534C49.2506 7.27334 49.5626 7.54934 49.7866 7.89334C50.0186 8.23734 50.1666 8.60534 50.2306 8.99734L49.3066 9.18934C49.2666 8.90134 49.1706 8.63734 49.0186 8.39734C48.8746 8.15734 48.6706 7.96534 48.4066 7.82134C48.1426 7.67734 47.8186 7.60534 47.4346 7.60534C47.0426 7.60534 46.6906 7.69334 46.3786 7.86934C46.0746 8.04534 45.8306 8.29734 45.6466 8.62534C45.4706 8.95334 45.3826 9.34534 45.3826 9.80134V9.90934C45.3826 10.3653 45.4706 10.7573 45.6466 11.0853C45.8306 11.4133 46.0746 11.6653 46.3786 11.8413C46.6906 12.0173 47.0426 12.1053 47.4346 12.1053C48.0186 12.1053 48.4626 11.9533 48.7666 11.6493C49.0786 11.3453 49.2706 10.9693 49.3426 10.5213L50.2786 10.7253C50.1906 11.1093 50.0306 11.4733 49.7986 11.8173C49.5666 12.1613 49.2506 12.4373 48.8506 12.6453C48.4586 12.8533 47.9826 12.9573 47.4226 12.9573ZM54.5824 12.9573C53.9904 12.9573 53.4704 12.8333 53.0224 12.5853C52.5744 12.3293 52.2264 11.9733 51.9784 11.5173C51.7304 11.0613 51.6064 10.5333 51.6064 9.93334V9.78934C51.6064 9.18134 51.7304 8.64934 51.9784 8.19334C52.2264 7.73734 52.5704 7.38534 53.0104 7.13734C53.4504 6.88134 53.9544 6.75334 54.5224 6.75334C55.0744 6.75334 55.5624 6.87334 55.9864 7.11334C56.4104 7.34534 56.7424 7.68134 56.9824 8.12134C57.2224 8.56134 57.3424 9.07734 57.3424 9.66934V10.1013H52.5544C52.5784 10.7333 52.7824 11.2293 53.1664 11.5893C53.5504 11.9413 54.0304 12.1173 54.6064 12.1173C55.1104 12.1173 55.4984 12.0013 55.7704 11.7693C56.0424 11.5373 56.2504 11.2613 56.3944 10.9413L57.2104 11.3373C57.0904 11.5853 56.9224 11.8333 56.7064 12.0813C56.4984 12.3293 56.2224 12.5373 55.8784 12.7053C55.5424 12.8733 55.1104 12.9573 54.5824 12.9573ZM52.5664 9.32134H56.3824C56.3504 8.77734 56.1624 8.35334 55.8184 8.04934C55.4824 7.74534 55.0504 7.59334 54.5224 7.59334C53.9864 7.59334 53.5464 7.74534 53.2024 8.04934C52.8584 8.35334 52.6464 8.77734 52.5664 9.32134ZM61.36 12.9573C60.632 12.9573 60.016 12.7893 59.512 12.4533C59.016 12.1173 58.716 11.5853 58.612 10.8573L59.512 10.6533C59.576 11.0373 59.696 11.3413 59.872 11.5653C60.048 11.7813 60.264 11.9373 60.52 12.0333C60.784 12.1213 61.064 12.1653 61.36 12.1653C61.8 12.1653 62.148 12.0773 62.404 11.9013C62.66 11.7253 62.788 11.4893 62.788 11.1933C62.788 10.8893 62.664 10.6773 62.416 10.5573C62.176 10.4293 61.844 10.3253 61.42 10.2453L60.928 10.1613C60.552 10.0973 60.208 9.99734 59.896 9.86134C59.584 9.72534 59.336 9.54134 59.152 9.30934C58.968 9.07734 58.876 8.78534 58.876 8.43334C58.876 7.90534 59.08 7.49334 59.488 7.19734C59.896 6.90134 60.436 6.75334 61.108 6.75334C61.772 6.75334 62.308 6.90534 62.716 7.20934C63.132 7.50534 63.4 7.92534 63.52 8.46934L62.632 8.69734C62.56 8.27334 62.388 7.97734 62.116 7.80934C61.844 7.63334 61.508 7.54534 61.108 7.54534C60.708 7.54534 60.392 7.62134 60.16 7.77334C59.928 7.91734 59.812 8.13334 59.812 8.42134C59.812 8.70134 59.92 8.90934 60.136 9.04534C60.36 9.17334 60.656 9.26934 61.024 9.33334L61.516 9.41734C61.932 9.48934 62.304 9.58934 62.632 9.71734C62.968 9.83734 63.232 10.0133 63.424 10.2453C63.624 10.4773 63.724 10.7813 63.724 11.1573C63.724 11.7333 63.508 12.1773 63.076 12.4893C62.652 12.8013 62.08 12.9573 61.36 12.9573ZM67.6881 12.9573C66.9601 12.9573 66.3441 12.7893 65.8401 12.4533C65.3441 12.1173 65.0441 11.5853 64.9401 10.8573L65.8401 10.6533C65.9041 11.0373 66.0241 11.3413 66.2001 11.5653C66.3761 11.7813 66.5921 11.9373 66.8481 12.0333C67.1121 12.1213 67.3921 12.1653 67.6881 12.1653C68.1281 12.1653 68.4761 12.0773 68.7321 11.9013C68.9881 11.7253 69.1161 11.4893 69.1161 11.1933C69.1161 10.8893 68.9921 10.6773 68.7441 10.5573C68.5041 10.4293 68.1721 10.3253 67.7481 10.2453L67.2561 10.1613C66.8801 10.0973 66.5361 9.99734 66.2241 9.86134C65.9121 9.72534 65.6641 9.54134 65.4801 9.30934C65.2961 9.07734 65.2041 8.78534 65.2041 8.43334C65.2041 7.90534 65.4081 7.49334 65.8161 7.19734C66.2241 6.90134 66.7641 6.75334 67.4361 6.75334C68.1001 6.75334 68.6361 6.90534 69.0441 7.20934C69.4601 7.50534 69.7281 7.92534 69.8481 8.46934L68.9601 8.69734C68.8881 8.27334 68.7161 7.97734 68.4441 7.80934C68.1721 7.63334 67.8361 7.54534 67.4361 7.54534C67.0361 7.54534 66.7201 7.62134 66.4881 7.77334C66.2561 7.91734 66.1401 8.13334 66.1401 8.42134C66.1401 8.70134 66.2481 8.90934 66.4641 9.04534C66.6881 9.17334 66.9841 9.26934 67.3521 9.33334L67.8441 9.41734C68.2601 9.48934 68.6321 9.58934 68.9601 9.71734C69.2961 9.83734 69.5601 10.0133 69.7521 10.2453C69.9521 10.4773 70.0521 10.7813 70.0521 11.1573C70.0521 11.7333 69.8361 12.1773 69.4041 12.4893C68.9801 12.8013 68.4081 12.9573 67.6881 12.9573ZM73.4054 12.9573C72.9974 12.9573 72.6254 12.8853 72.2894 12.7413C71.9534 12.5973 71.6894 12.3893 71.4974 12.1173C71.3054 11.8453 71.2094 11.5133 71.2094 11.1213C71.2094 10.7213 71.3054 10.3933 71.4974 10.1373C71.6894 9.87334 71.9534 9.67734 72.2894 9.54934C72.6254 9.41334 73.0014 9.34534 73.4174 9.34534H75.3974V8.91334C75.3974 8.49734 75.2734 8.16934 75.0254 7.92934C74.7854 7.68934 74.4254 7.56934 73.9454 7.56934C73.4734 7.56934 73.1054 7.68534 72.8414 7.91734C72.5774 8.14134 72.3974 8.44534 72.3014 8.82934L71.4134 8.54134C71.5094 8.21334 71.6614 7.91734 71.8694 7.65334C72.0774 7.38134 72.3534 7.16534 72.6974 7.00534C73.0494 6.83734 73.4694 6.75334 73.9574 6.75334C74.7094 6.75334 75.2934 6.94934 75.7094 7.34134C76.1254 7.72534 76.3334 8.26934 76.3334 8.97334V11.6253C76.3334 11.8653 76.4454 11.9853 76.6694 11.9853H77.2094V12.7893H76.3814C76.1174 12.7893 75.9054 12.7173 75.7454 12.5733C75.5854 12.4213 75.5054 12.2213 75.5054 11.9733V11.9133H75.3614C75.2734 12.0653 75.1534 12.2253 75.0014 12.3933C74.8574 12.5533 74.6574 12.6853 74.4014 12.7893C74.1454 12.9013 73.8134 12.9573 73.4054 12.9573ZM73.5134 12.1413C74.0734 12.1413 74.5254 11.9773 74.8694 11.6493C75.2214 11.3133 75.3974 10.8453 75.3974 10.2453V10.1133H73.4534C73.0774 10.1133 72.7654 10.1973 72.5174 10.3653C72.2774 10.5253 72.1574 10.7693 72.1574 11.0973C72.1574 11.4253 72.2814 11.6813 72.5294 11.8653C72.7854 12.0493 73.1134 12.1413 73.5134 12.1413ZM78.5077 12.7893V6.92134H79.4317V7.91734H79.5997C79.7277 7.63734 79.9437 7.38534 80.2477 7.16134C80.5597 6.92934 81.0157 6.81334 81.6157 6.81334C82.0557 6.81334 82.4477 6.90534 82.7917 7.08934C83.1437 7.27334 83.4237 7.54534 83.6317 7.90534C83.8397 8.26534 83.9437 8.70934 83.9437 9.23734V12.7893H82.9957V9.30934C82.9957 8.72534 82.8477 8.30134 82.5517 8.03734C82.2637 7.77334 81.8717 7.64134 81.3757 7.64134C80.8077 7.64134 80.3437 7.82534 79.9837 8.19334C79.6317 8.56134 79.4557 9.10934 79.4557 9.83734V12.7893H78.5077ZM88.3511 12.9573C87.8471 12.9573 87.3831 12.8373 86.9591 12.5973C86.5351 12.3573 86.1991 12.0093 85.9511 11.5533C85.7031 11.0973 85.5791 10.5573 85.5791 9.93334V9.77734C85.5791 9.15334 85.7031 8.61734 85.9511 8.16934C86.1991 7.71334 86.5311 7.36534 86.9471 7.12534C87.3711 6.87734 87.8391 6.75334 88.3511 6.75334C88.7591 6.75334 89.1031 6.80934 89.3831 6.92134C89.6711 7.02534 89.9031 7.16134 90.0791 7.32934C90.2551 7.48934 90.3911 7.66134 90.4871 7.84534H90.6551V4.38934H91.6031V12.7893H90.6791V11.8173H90.5111C90.3511 12.1133 90.1031 12.3773 89.7671 12.6093C89.4311 12.8413 88.9591 12.9573 88.3511 12.9573ZM88.6031 12.1173C89.2111 12.1173 89.7031 11.9253 90.0791 11.5413C90.4631 11.1493 90.6551 10.6053 90.6551 9.90934V9.80134C90.6551 9.10534 90.4631 8.56534 90.0791 8.18134C89.7031 7.78934 89.2111 7.59334 88.6031 7.59334C88.0031 7.59334 87.5071 7.78934 87.1151 8.18134C86.7311 8.56534 86.5391 9.10534 86.5391 9.80134V9.90934C86.5391 10.6053 86.7311 11.1493 87.1151 11.5413C87.5071 11.9253 88.0031 12.1173 88.6031 12.1173ZM96.3018 12.9573C95.7098 12.9573 95.1858 12.8333 94.7298 12.5853C94.2818 12.3373 93.9298 11.9893 93.6738 11.5413C93.4258 11.0853 93.3018 10.5493 93.3018 9.93334V9.77734C93.3018 9.16934 93.4258 8.63734 93.6738 8.18134C93.9298 7.72534 94.2818 7.37334 94.7298 7.12534C95.1858 6.87734 95.7098 6.75334 96.3018 6.75334C96.8938 6.75334 97.4138 6.87734 97.8618 7.12534C98.3178 7.37334 98.6698 7.72534 98.9178 8.18134C99.1738 8.63734 99.3018 9.16934 99.3018 9.77734V9.93334C99.3018 10.5493 99.1738 11.0853 98.9178 11.5413C98.6698 11.9893 98.3178 12.3373 97.8618 12.5853C97.4138 12.8333 96.8938 12.9573 96.3018 12.9573ZM96.3018 12.1053C96.9258 12.1053 97.4218 11.9093 97.7898 11.5173C98.1658 11.1173 98.3538 10.5813 98.3538 9.90934V9.80134C98.3538 9.12934 98.1658 8.59734 97.7898 8.20534C97.4218 7.80534 96.9258 7.60534 96.3018 7.60534C95.6858 7.60534 95.1898 7.80534 94.8138 8.20534C94.4378 8.59734 94.2498 9.12934 94.2498 9.80134V9.90934C94.2498 10.5813 94.4378 11.1173 94.8138 11.5173C95.1898 11.9093 95.6858 12.1053 96.3018 12.1053Z" fill="#858FAB"/>
</svg>
