<svg width="20" height="20" viewBox="0 0 20 20" fill="none" xmlns="http://www.w3.org/2000/svg">
<rect width="20" height="20" rx="10" fill="#282B38"/>
<path d="M9.59085 15C8.69533 15 7.98223 14.7475 7.45155 14.2425C6.92916 13.7376 6.66797 13.0314 6.66797 12.1242V11.2769H8.30976V12.1242C8.30976 12.5265 8.41755 12.8431 8.63314 13.0742C8.84873 13.2968 9.15138 13.408 9.5411 13.408C9.90595 13.408 10.1879 13.2968 10.3869 13.0742C10.5942 12.8517 10.6978 12.535 10.6978 12.1242V7.37396H9.20528V5.83334H13.3346V7.37396H12.3396V12.1242C12.3396 13.0571 12.095 13.7718 11.6058 14.2682C11.1166 14.7561 10.4449 15 9.59085 15Z" fill="#101116"/>
</svg>
