<svg width="24" height="24" viewBox="0 0 24 24" fill="none" xmlns="http://www.w3.org/2000/svg">
<path d="M18 8C18 6.4087 17.3679 4.88258 16.2426 3.75736C15.1174 2.63214 13.5913 2 12 2C10.4087 2 8.88258 2.63214 7.75736 3.75736C6.63214 4.88258 6 6.4087 6 8C6 15 3 17 3 17H21C21 17 18 15 18 8Z" stroke="#667191" stroke-width="2" stroke-linecap="round" stroke-linejoin="round"/>
<path d="M16 18C15.5935 18.9125 15.01 19.6699 14.308 20.1964C13.606 20.7229 12.8101 21 12 21C11.1899 21 10.394 20.7229 9.69196 20.1964C8.98996 19.6699 8.4065 18.9125 8 18" stroke="#667191" stroke-width="2" stroke-linecap="round" stroke-linejoin="round"/>
</svg>
