<svg width="14" height="14" viewBox="0 0 14 14" fill="none" xmlns="http://www.w3.org/2000/svg">
<mask id="mask0_226_7" style="mask-type:alpha" maskUnits="userSpaceOnUse" x="0" y="0" width="14" height="14">
<rect width="14" height="14" fill="#D9D9D9"/>
</mask>
<g mask="url(#mask0_226_7)">
<path d="M7.875 4.11768C7.42008 4.71021 6.97446 5.30275 6.51955 5.90484C5.52619 7.20459 4.53284 8.50437 3.54874 9.80412C3.50232 9.86147 3.4559 9.89012 3.39091 9.88057H0.875C1.99834 8.45658 3.1124 7.05169 4.23576 5.63724C4.2079 5.60857 4.17077 5.61813 4.14291 5.61813H1.1628C1.07924 5.61813 1.06068 5.59902 1.06068 5.513V4.11768H7.875Z" fill="#D6ED16"/>
<path d="M11.9338 4.11768C11.2096 5.045 10.4949 5.96276 9.77067 6.88053C9.73256 6.92833 9.73256 6.95701 9.78019 6.99525C10.6569 7.75048 11.5336 8.51529 12.4198 9.27053C12.6485 9.4713 12.8772 9.67205 13.125 9.88238H10.19C10.1423 9.88238 10.1042 9.88238 10.0661 9.84414C9.05597 8.89769 8.04584 7.95126 7.03575 7.0048C6.98808 6.95701 6.98808 6.93788 7.03575 6.88053C7.75997 5.97232 8.47468 5.06412 9.18938 4.14636C9.1989 4.14636 9.1989 4.12724 9.20842 4.11768H11.9433H11.9338Z" fill="black"/>
</g>
</svg>
