<svg width="24" height="25" viewBox="0 0 24 25" fill="none" xmlns="http://www.w3.org/2000/svg">
<path d="M21 16.5V8.50002C20.9996 8.1493 20.9071 7.80483 20.7315 7.50119C20.556 7.19754 20.3037 6.94539 20 6.77002L13 2.77002C12.696 2.59449 12.3511 2.50208 12 2.50208C11.6489 2.50208 11.304 2.59449 11 2.77002L4 6.77002C3.69626 6.94539 3.44398 7.19754 3.26846 7.50119C3.09294 7.80483 3.00036 8.1493 3 8.50002V16.5C3.00036 16.8508 3.09294 17.1952 3.26846 17.4989C3.44398 17.8025 3.69626 18.0547 4 18.23L11 22.23C11.304 22.4056 11.6489 22.498 12 22.498C12.3511 22.498 12.696 22.4056 13 22.23L20 18.23C20.3037 18.0547 20.556 17.8025 20.7315 17.4989C20.9071 17.1952 20.9996 16.8508 21 16.5Z" stroke="#424962" stroke-width="2" stroke-linecap="round" stroke-linejoin="round"/>
<path d="M15.6924 8.97375L8.69238 15.9738" stroke="#424962" stroke-width="1.5" stroke-linecap="round" stroke-linejoin="round"/>
<path d="M9.44238 10.9738C10.1327 10.9738 10.6924 10.4141 10.6924 9.72375C10.6924 9.0334 10.1327 8.47375 9.44238 8.47375C8.75203 8.47375 8.19238 9.0334 8.19238 9.72375C8.19238 10.4141 8.75203 10.9738 9.44238 10.9738Z" stroke="#424962" stroke-width="1.5" stroke-linecap="round" stroke-linejoin="round"/>
<path d="M14.9424 16.4738C15.6327 16.4738 16.1924 15.9141 16.1924 15.2238C16.1924 14.5334 15.6327 13.9738 14.9424 13.9738C14.252 13.9738 13.6924 14.5334 13.6924 15.2238C13.6924 15.9141 14.252 16.4738 14.9424 16.4738Z" stroke="#424962" stroke-width="1.5" stroke-linecap="round" stroke-linejoin="round"/>
</svg>
