<svg width="20" height="20" viewBox="0 0 20 20" fill="none" xmlns="http://www.w3.org/2000/svg">
<g clip-path="url(#clip0_692_13667)">
<path d="M16.6663 10V18.3333H3.33301V10" stroke="url(#paint0_linear_692_13667)" stroke-width="2" stroke-linecap="round" stroke-linejoin="round"/>
<path d="M18.3337 5.83334H1.66699V10H18.3337V5.83334Z" stroke="url(#paint1_linear_692_13667)" stroke-width="2" stroke-linecap="round" stroke-linejoin="round"/>
<path d="M10 18.3333V5.83334" stroke="url(#paint2_linear_692_13667)" stroke-width="2" stroke-linecap="round" stroke-linejoin="round"/>
<path d="M10.0003 5.83332H6.25033C5.69779 5.83332 5.16789 5.61383 4.77719 5.22313C4.38649 4.83243 4.16699 4.30252 4.16699 3.74999C4.16699 3.19746 4.38649 2.66755 4.77719 2.27685C5.16789 1.88615 5.69779 1.66666 6.25033 1.66666C9.16699 1.66666 10.0003 5.83332 10.0003 5.83332Z" stroke="url(#paint3_linear_692_13667)" stroke-width="2" stroke-linecap="round" stroke-linejoin="round"/>
<path d="M10 5.83332H13.75C14.3025 5.83332 14.8324 5.61383 15.2231 5.22313C15.6138 4.83243 15.8333 4.30252 15.8333 3.74999C15.8333 3.19746 15.6138 2.66755 15.2231 2.27685C14.8324 1.88615 14.3025 1.66666 13.75 1.66666C10.8333 1.66666 10 5.83332 10 5.83332Z" stroke="url(#paint4_linear_692_13667)" stroke-width="2" stroke-linecap="round" stroke-linejoin="round"/>
</g>
<defs>
<linearGradient id="paint0_linear_692_13667" x1="3.33301" y1="14.167" x2="16.6663" y2="14.167" gradientUnits="userSpaceOnUse">
<stop stop-color="#D83948"/>
<stop offset="1" stop-color="#FC830B"/>
</linearGradient>
<linearGradient id="paint1_linear_692_13667" x1="1.66699" y1="7.91683" x2="18.3337" y2="7.91683" gradientUnits="userSpaceOnUse">
<stop stop-color="#D83948"/>
<stop offset="1" stop-color="#FC830B"/>
</linearGradient>
<linearGradient id="paint2_linear_692_13667" x1="10" y1="12.0838" x2="11" y2="12.0838" gradientUnits="userSpaceOnUse">
<stop stop-color="#D83948"/>
<stop offset="1" stop-color="#FC830B"/>
</linearGradient>
<linearGradient id="paint3_linear_692_13667" x1="4.16699" y1="3.75014" x2="10.0003" y2="3.75014" gradientUnits="userSpaceOnUse">
<stop stop-color="#D83948"/>
<stop offset="1" stop-color="#FC830B"/>
</linearGradient>
<linearGradient id="paint4_linear_692_13667" x1="10" y1="3.75014" x2="15.8333" y2="3.75014" gradientUnits="userSpaceOnUse">
<stop stop-color="#D83948"/>
<stop offset="1" stop-color="#FC830B"/>
</linearGradient>
<clipPath id="clip0_692_13667">
<rect width="20" height="20" fill="white"/>
</clipPath>
</defs>
</svg>
