<svg width="27" height="27" viewBox="0 0 27 27" fill="none" xmlns="http://www.w3.org/2000/svg">
<rect y="0.333313" width="26.3333" height="26.3333" rx="8" fill="#282B38"/>
<path d="M17.2996 13.5V18.6666H9.03293V13.5M13.1665 18.6666V10.9166M13.1665 10.9166L10.8417 10.9167C10.4991 10.9167 10.1706 10.7806 9.92832 10.5384C9.68609 10.2961 9.55 9.9676 9.55 9.62503C9.55 9.28246 9.68609 8.95392 9.92832 8.71168C10.1706 8.46945 10.4991 8.33336 10.8417 8.33336C12.65 8.33336 13.1665 10.9166 13.1665 10.9166ZM13.1665 10.9166L15.4915 10.9166C15.834 10.9166 16.1626 10.7806 16.4048 10.5383C16.647 10.2961 16.7831 9.96755 16.7831 9.62498C16.7831 9.28241 16.647 8.95387 16.4048 8.71163C16.1626 8.4694 15.834 8.33331 15.4915 8.33331C13.6831 8.33331 13.1665 10.9166 13.1665 10.9166ZM8 10.9166H18.3333V13.4999H8V10.9166Z" stroke="#858FAB" stroke-linecap="round" stroke-linejoin="round"/>
</svg>
