<svg width="20" height="20" viewBox="0 0 20 20" fill="none" xmlns="http://www.w3.org/2000/svg">
<path d="M6.78213 6.9917V10.325M5.11547 8.65836H8.4488M13.3596 3.2392H6.64213C5.48859 3.23942 4.38236 3.69782 3.56676 4.51358C2.75116 5.32934 2.29297 6.43565 2.29297 7.5892V14.4767C2.29297 16.2059 4.4038 17.0475 5.59464 15.7942L8.07464 13.1825H11.928L14.3238 16.0659C15.4688 17.4442 17.7096 16.6342 17.7096 14.8434V7.58836C17.7094 6.43496 17.2511 5.32886 16.4355 4.51328C15.62 3.6977 14.513 3.23942 13.3596 3.2392Z" stroke="url(#paint0_linear_856_11736)" stroke-width="1.5" stroke-linecap="round" stroke-linejoin="round"/>
<path d="M12.2191 8.65837C12.6793 8.65837 13.0524 8.28527 13.0524 7.82503C13.0524 7.3648 12.6793 6.9917 12.2191 6.9917C11.7588 6.9917 11.3857 7.3648 11.3857 7.82503C11.3857 8.28527 11.7588 8.65837 12.2191 8.65837Z" fill="url(#paint1_linear_856_11736)"/>
<path d="M14.0521 10.4917C14.5123 10.4917 14.8854 10.1186 14.8854 9.65835C14.8854 9.19811 14.5123 8.82501 14.0521 8.82501C13.5918 8.82501 13.2188 9.19811 13.2188 9.65835C13.2188 10.1186 13.5918 10.4917 14.0521 10.4917Z" fill="url(#paint2_linear_856_11736)"/>
<defs>
<linearGradient id="paint0_linear_856_11736" x1="2.29297" y1="10.0004" x2="17.7096" y2="10.0004" gradientUnits="userSpaceOnUse">
<stop stop-color="#D83948"/>
<stop offset="1" stop-color="#FC830B"/>
</linearGradient>
<linearGradient id="paint1_linear_856_11736" x1="11.3857" y1="7.82509" x2="13.0524" y2="7.82509" gradientUnits="userSpaceOnUse">
<stop stop-color="#D83948"/>
<stop offset="1" stop-color="#FC830B"/>
</linearGradient>
<linearGradient id="paint2_linear_856_11736" x1="13.2188" y1="9.65841" x2="14.8854" y2="9.65841" gradientUnits="userSpaceOnUse">
<stop stop-color="#D83948"/>
<stop offset="1" stop-color="#FC830B"/>
</linearGradient>
</defs>
</svg>
